<svg xmlns="http://www.w3.org/2000/svg" xmlns:xlink="http://www.w3.org/1999/xlink" version="1.1" x="0px" y="0px" viewBox="0 0 100 125" style="enable-background:new 0 0 100 100;" xml:space="preserve"><style type="text/css">
	.st0{fill-rule:evenodd;clip-rule:evenodd;}
</style><path class="st0" d="M50,86.021c19.894,0,36.022-16.128,36.022-36.022c0-19.894-16.128-36.021-36.022-36.021  S13.979,30.105,13.979,50S30.106,86.021,50,86.021L50,86.021z M61.249,35.881c1.889-1.889,4.758,0.981,2.869,2.87L52.87,50  l11.249,11.249c1.889,1.889-0.98,4.759-2.869,2.869L50,52.87L38.751,64.118c-1.889,1.889-4.759-0.98-2.869-2.869L47.13,50  L35.882,38.751c-1.889-1.889,0.98-4.759,2.869-2.87L50,47.13L61.249,35.881L61.249,35.881z M78.34,78.341  c-15.652,15.652-41.029,15.652-56.681,0c-15.652-15.652-15.652-41.03,0-56.682c15.652-15.652,41.029-15.652,56.681,0  C93.993,37.312,93.993,62.689,78.34,78.341z"/><text x="0" y="115" fill="#000000" font-size="5px" font-weight="bold" font-family="'Helvetica Neue', Helvetica, Arial-Unicode, Arial, Sans-serif">Created by Dwi Budiyanto</text><text x="0" y="120" fill="#000000" font-size="5px" font-weight="bold" font-family="'Helvetica Neue', Helvetica, Arial-Unicode, Arial, Sans-serif">from the Noun Project</text></svg>